<?xml version="1.0" encoding="utf-8"?>
<!-- Generator: Adobe Illustrator 27.8.0, SVG Export Plug-In . SVG Version: 6.00 Build 0)  -->
<svg version="1.1" id="Layer_1" xmlns="http://www.w3.org/2000/svg" xmlns:xlink="http://www.w3.org/1999/xlink" x="0px" y="0px"
	 viewBox="0 0 30 30" style="enable-background:new 0 0 30 30;" xml:space="preserve">
<style type="text/css">
	.st0{fill:#998330;}
</style>
<path class="st0" d="M15,0C6.7,0,0,6.7,0,15c0,8.3,6.7,15,15,15c8.3,0,15-6.7,15-15C30,6.7,23.3,0,15,0z M19.7,9.1H18
	c-1.3,0-1.6,0.6-1.6,1.5v2h3.1l-0.4,3.2h-2.7v8.1h-3.2v-8.1h-2.7v-3.2h2.7v-2.3c0-2.7,1.7-4.2,4.1-4.2c1.1,0,2.1,0.1,2.4,0.1V9.1z"
	/>
</svg>
