<svg width="54" height="33" viewBox="0 0 54 33" fill="none" xmlns="http://www.w3.org/2000/svg">
<path d="M2.22459 6.74141C2.21445 6.8429 2.19415 6.94439 2.19415 7.04587C2.19415 8.52555 2.19415 10.0073 2.19415 11.4869C2.19415 18.5159 2.19415 25.5429 2.19415 32.5719C2.19415 32.8845 2.19415 32.8845 1.87751 32.8845C1.36398 32.8845 0.850459 32.8804 0.336934 32.8865C0.176584 32.8885 0.115692 32.8419 0.115692 32.6714C0.119752 21.9564 0.119752 11.2393 0.121781 0.524312C0.121781 0.180609 0.29025 0.00875782 0.627187 0.00875782C1.03314 0.00875782 1.44111 0.0189065 1.84706 0.00469834C2.01147 -0.00139089 2.09063 0.0574716 2.13934 0.203613C2.24083 0.512134 2.34435 0.818625 2.45395 1.12512C2.58792 1.49859 2.73406 1.87003 2.87005 2.2435C3.06288 2.77327 3.25367 3.30506 3.44447 3.83482C3.62309 4.32805 3.80373 4.81925 3.98438 5.31247C4.13255 5.71639 4.28275 6.12234 4.43092 6.52626C4.62781 7.06008 4.82469 7.59593 5.01955 8.13179C5.1596 8.51947 5.29559 8.90715 5.43565 9.29483C5.6711 9.93623 5.91061 10.5756 6.14403 11.219C6.3267 11.7183 6.50126 12.2197 6.67988 12.719C6.86661 13.2366 7.05132 13.7562 7.23806 14.2738C7.42276 14.7853 7.61153 15.2947 7.79826 15.8062C8.02763 16.4355 8.25902 17.0647 8.48838 17.6959C8.6812 18.2257 8.86794 18.7575 9.06076 19.2872C9.25156 19.8109 9.4525 20.3305 9.6433 20.8542C9.81989 21.3393 9.98836 21.8285 10.1649 22.3156C10.3537 22.8393 10.5486 23.363 10.7394 23.8866C10.9281 24.4042 11.1149 24.9218 11.2996 25.4414C11.4335 25.8169 11.5573 26.1945 11.6994 26.5679C11.7218 26.6288 11.8131 26.6613 11.872 26.708C11.9085 26.6572 11.9572 26.6126 11.9775 26.5558C12.1663 26.0382 12.3489 25.5186 12.5357 25.001C12.7204 24.4895 12.9071 23.978 13.0939 23.4665C13.2928 22.9245 13.4917 22.3826 13.6886 21.8407C13.8672 21.3474 14.0417 20.8522 14.2183 20.359C14.403 19.8475 14.5898 19.336 14.7765 18.8245C14.9653 18.3069 15.154 17.7893 15.3448 17.2737C15.5011 16.8516 15.6615 16.4294 15.8157 16.0052C15.9517 15.6317 16.0796 15.2562 16.2156 14.8827C16.4125 14.3408 16.6175 13.8009 16.8123 13.2569C16.9585 12.8509 17.0925 12.4409 17.2366 12.035C17.3726 11.6534 17.5207 11.2779 17.6588 10.8983C17.8455 10.3868 18.0302 9.87533 18.2149 9.36587C18.4057 8.84219 18.5985 8.31852 18.7873 7.79282C18.9761 7.2732 19.1608 6.75562 19.3495 6.23601C19.5261 5.74887 19.7007 5.26173 19.8773 4.77662C20.1066 4.1474 20.34 3.51818 20.5714 2.88896C20.7683 2.35514 20.9652 1.81929 21.1601 1.28344C21.296 0.909963 21.4381 0.536491 21.564 0.160988C21.6005 0.0534122 21.6431 0.0128173 21.7568 0.014847C22.2967 0.0209363 22.8366 0.0189065 23.3765 0.014847C23.5044 0.014847 23.5592 0.0534121 23.5531 0.187375C23.545 0.339606 23.5511 0.493866 23.5511 0.648127C23.5511 11.3104 23.5511 21.9726 23.5511 32.6369C23.5511 32.8865 23.545 32.8926 23.2933 32.8926C22.7737 32.8926 22.2521 32.8926 21.7324 32.8926C21.5565 32.8926 21.4693 32.8033 21.4706 32.6247C21.4706 24.6823 21.4706 16.7399 21.4706 8.79957C21.4706 8.23936 21.4747 7.67915 21.4706 7.11894C21.4706 7.00731 21.4361 6.89567 21.4178 6.78404C21.3955 6.78404 21.3711 6.78201 21.3488 6.77998C18.1905 15.4246 15.0343 24.0673 11.876 32.712C11.8517 32.712 11.8273 32.716 11.8029 32.7181C8.6467 24.047 5.48842 15.3861 2.32811 6.72517C2.29361 6.73126 2.2591 6.73735 2.22459 6.74141Z" fill="#998330"/>
<path d="M41.1774 16.4395C41.1774 11.0323 41.1774 5.62305 41.1733 0.215815C41.1733 0.0432873 41.2281 0.00472225 41.3905 0.00472225C43.5319 0.00878173 45.6712 -0.0176049 47.8126 0.0229899C48.385 0.0331386 48.9594 0.219875 49.5237 0.366016C50.092 0.514188 50.6035 0.798351 51.0967 1.12108C51.8559 1.6204 52.4689 2.25571 52.9499 3.02092C53.3051 3.58519 53.573 4.18802 53.7374 4.83957C53.8937 5.45661 53.9749 6.07365 53.9749 6.71099C53.9688 11.5519 53.9749 16.3929 53.9688 21.2338C53.9688 21.8691 53.8328 22.4861 53.6319 23.089C53.3112 24.0551 52.82 24.9198 52.1238 25.6668C52.0304 25.7662 52.0548 25.8657 52.1624 25.9367C52.8261 26.3853 53.3112 26.9861 53.638 27.7066C53.8978 28.2831 54.0521 28.8961 53.9587 29.5294C53.7598 30.8751 53.1001 31.9123 51.8478 32.5232C51.3322 32.7749 50.7862 32.8825 50.2098 32.8825C47.2747 32.8764 44.3418 32.8784 41.4068 32.8825C41.2363 32.8825 41.1754 32.8399 41.1754 32.6592C41.1794 27.5788 41.1794 22.4963 41.1794 17.4159C41.1794 17.0891 41.1794 16.7623 41.1794 16.4355L41.1774 16.4395ZM51.8863 13.6832C51.8863 11.4159 51.8904 9.14871 51.8843 6.88149C51.8843 6.30301 51.8457 5.7286 51.6752 5.16636C51.4662 4.47624 51.1292 3.86732 50.6116 3.36801C49.7977 2.58047 48.8356 2.10348 47.6888 2.08724C46.3147 2.06694 44.9426 2.08115 43.5684 2.07912C43.2619 2.07912 43.2457 2.09739 43.2457 2.40997C43.2457 9.85709 43.2457 17.3042 43.2457 24.7534C43.2457 24.9259 43.2457 25.1005 43.2416 25.273C43.2376 25.3988 43.3005 25.4597 43.4182 25.4699C43.4913 25.476 43.5644 25.476 43.6374 25.476C44.8776 25.476 46.1178 25.4861 47.358 25.4699C47.7477 25.4658 48.1394 25.4212 48.5251 25.3521C49.1726 25.2364 49.7389 24.9239 50.2483 24.5159C51.3789 23.6127 51.8721 22.3989 51.8802 20.9841C51.8965 18.5505 51.8843 16.1168 51.8843 13.6832H51.8863ZM46.9784 30.8385C48.0582 30.8385 49.138 30.8345 50.2179 30.8426C50.5507 30.8446 50.8451 30.7594 51.115 30.5686C51.7402 30.1322 52.069 29.3101 51.7503 28.5429C51.521 27.9908 50.9384 27.5098 50.1955 27.5138C47.9811 27.524 45.7687 27.5179 43.5542 27.5179C43.2822 27.5179 43.2416 27.5605 43.2416 27.8305C43.2416 28.7235 43.2416 29.6166 43.2416 30.5097C43.2416 30.8081 43.2721 30.8385 43.5766 30.8385C44.7091 30.8385 45.8438 30.8385 46.9764 30.8385H46.9784Z" fill="#998330"/>
<path d="M39.5536 32.8663C39.4704 32.8744 39.4196 32.8845 39.3689 32.8845C38.5753 32.8845 37.7816 32.8845 36.988 32.8866C36.8358 32.8866 36.7282 32.8378 36.6247 32.7221C35.6768 31.6484 34.7248 30.5787 33.7749 29.507C33.2391 28.9042 32.7032 28.3034 32.1714 27.6985C32.0557 27.5666 31.9299 27.5159 31.7553 27.5179C30.6755 27.526 29.5957 27.5219 28.5138 27.5219C28.2358 27.5219 28.2012 27.5585 28.2012 27.8325C28.2012 29.4258 28.2012 31.0192 28.2033 32.6125C28.2033 32.8744 28.1972 32.8845 27.9374 32.8845C27.3975 32.8845 26.8576 32.8825 26.3176 32.8886C26.1695 32.8886 26.1086 32.8581 26.1086 32.6876C26.1126 21.9178 26.1147 11.15 26.1147 0.380232C26.1147 0.00878906 26.1147 0.00878906 26.4963 0.00878906C28.5159 0.00878906 30.5375 0.00878906 32.5571 0.00878906C33.0604 0.00878906 33.5415 0.140722 34.0266 0.248299C34.5888 0.374143 35.1105 0.601474 35.6078 0.885638C36.5333 1.41337 37.2762 2.12987 37.8486 3.02905C38.2586 3.6745 38.5529 4.37273 38.7052 5.11765C38.8006 5.58449 38.8472 6.0696 38.8472 6.54659C38.8574 11.5803 38.8533 16.6161 38.8533 21.6499C38.8533 22.4496 38.7498 23.2351 38.4535 23.978C38.0841 24.9117 37.4508 25.6465 36.645 26.2391C36.0848 26.6512 35.4738 26.9658 34.806 27.1708C34.6152 27.2297 34.5848 27.3413 34.7167 27.4895C35.5854 28.4536 36.4562 29.4198 37.3249 30.3839C38.0435 31.1795 38.76 31.9772 39.4765 32.7729C39.4927 32.7912 39.5069 32.8155 39.5455 32.8683L39.5536 32.8663ZM28.2053 13.7928C28.2053 17.5458 28.2053 21.2988 28.2053 25.0517C28.2053 25.3359 28.3494 25.4773 28.6376 25.476C29.8636 25.476 31.0916 25.4597 32.3176 25.48C33.1924 25.4942 34.0286 25.3664 34.8101 24.9645C35.4434 24.6397 35.9873 24.2155 36.3405 23.5802C36.6774 22.9753 36.7789 22.3157 36.7789 21.6357C36.7789 17.29 36.7789 12.9423 36.7789 8.59663C36.7789 7.85577 36.8074 7.11492 36.7668 6.37812C36.7404 5.89098 36.6592 5.39572 36.5191 4.93091C36.3222 4.27937 35.9224 3.73539 35.4312 3.25841C34.6457 2.49522 33.7079 2.09739 32.6159 2.08522C31.5422 2.07304 30.4685 2.08116 29.3968 2.08116C29.0842 2.08116 28.7696 2.08522 28.457 2.08116C28.2784 2.07913 28.1972 2.15626 28.2073 2.33487C28.2094 2.38156 28.2073 2.42824 28.2073 2.47493C28.2073 6.24822 28.2073 10.0215 28.2073 13.7948L28.2053 13.7928Z" fill="#998330"/>
</svg>
