<svg width="718" height="217" viewBox="0 0 718 217" fill="none" xmlns="http://www.w3.org/2000/svg">
<path d="M44.8865 123.155C42.8029 117.462 40.7243 111.769 38.6357 106.081C31.2987 86.0848 23.9469 66.098 16.6197 46.0964C14.6941 40.8479 12.8623 35.5649 10.9071 30.3312C10.6355 29.6103 9.8801 29.0721 9.34686 28.45C9.0358 29.2005 8.45318 29.951 8.45318 30.7015C8.49268 60.9779 8.58649 91.2542 8.67536 121.531C8.68195 123.782 7.55457 124.906 5.29322 124.903C4.79948 124.903 4.30573 124.903 3.81199 124.903C0.592779 124.844 0.479218 124.72 0.479218 121.56C0.479218 83.2161 0.479218 44.8769 0.479218 6.53274C0.479218 3.28391 0.563154 3.17035 3.71818 3.13579C9.24811 3.08147 8.152 2.81485 9.78135 7.25855C16.2247 24.8655 22.6236 42.4921 29.0472 60.1089C33.8365 73.2375 38.616 86.3662 43.4646 99.4751C43.7954 100.364 44.6199 101.07 45.2124 101.86C45.7605 101.025 46.4961 100.26 46.8368 99.3418C52.9494 82.7569 59.0175 66.1523 65.0905 49.5477C70.3193 35.2588 75.5431 20.9698 80.762 6.67593C82.0704 3.09629 83.8627 2.11374 87.4966 3.1901C88.0052 3.34316 88.5582 4.16277 88.6421 4.74045C88.8199 5.95013 88.6915 7.1993 88.6915 8.43366C88.6915 46.2841 88.7014 84.1295 88.6619 121.98C88.6619 122.918 88.1977 124.617 87.8077 124.661C85.9759 124.858 84.0799 124.71 82.258 124.389C81.9766 124.34 81.8383 122.765 81.8383 121.896C81.8186 95.5646 81.8186 69.2382 81.8284 42.9068C81.8284 38.9569 81.9568 35.007 81.9173 31.0619C81.9074 30.2522 81.4285 29.4523 81.1668 28.6475C80.5348 29.2845 79.5967 29.8078 79.3153 30.5731C74.8469 42.6847 70.4921 54.8357 66.0533 66.9621C60.795 81.3251 55.4823 95.6634 50.2042 110.017C48.5995 114.386 47.0343 118.771 45.4494 123.15C45.2618 123.15 45.0791 123.15 44.8915 123.15L44.8865 123.155Z" fill="#998330"/>
<path d="M256.732 154.098C172.732 154.098 88.7359 154.098 4.73529 154.098C4.15761 154.098 3.58486 154.083 3.00718 154.093C0.987772 154.113 -0.0194649 153.55 0.000284865 151.101C0.0249721 148.617 1.32352 148.449 3.0615 148.395C4.29586 148.356 5.53022 148.395 6.76458 148.395C173.28 148.395 339.8 148.395 506.315 148.395C507.139 148.395 507.959 148.4 508.784 148.395C512.185 148.356 513.168 149.56 512.185 152.844C512.018 153.402 511.094 153.984 510.447 154.088C509.248 154.276 507.989 154.108 506.754 154.108C423.415 154.108 340.071 154.108 256.732 154.108V154.098Z" fill="#FAFAFA"/>
<path d="M668.347 63.8761C668.347 50.7969 668.391 37.7127 668.332 24.6334C668.283 13.3217 675.358 3.4419 687.563 0.602868C697.157 -1.63379 706.647 2.44453 712.502 11.3171C715.825 16.3484 717.509 22.056 717.489 28.2624C717.405 52.9447 717.968 77.6368 717.247 102.299C716.857 115.635 707.446 128.453 690.555 127.628C678.311 127.031 668.579 116.475 668.352 104.106C668.352 103.943 668.352 103.776 668.352 103.613C668.352 90.3655 668.352 77.1233 668.352 63.8761H668.347ZM708.409 63.9304C708.409 50.7722 708.429 37.6188 708.399 24.4606C708.384 17.6667 705.447 12.4675 699.226 9.64826C688.097 4.60713 676.489 12.1318 676.415 24.3668C676.326 39.579 676.385 54.7912 676.385 70.0035C676.385 81.2707 676.345 92.533 676.41 103.795C676.454 111.345 680.922 117.304 687.845 119.294C698.292 122.291 708.281 114.895 708.38 103.894C708.498 90.5729 708.409 77.2517 708.409 63.9354V63.9304Z" fill="#FAFAFA"/>
<path d="M418.641 63.9552C418.641 44.63 418.685 25.2999 418.591 5.97482C418.581 3.62459 419.347 3.03704 421.564 3.07654C428.303 3.19998 435.053 3.10123 441.792 3.13085C455.356 3.19504 465.522 13.3267 465.551 26.8651C465.591 45.0398 465.556 63.2145 465.566 81.3893C465.566 87.3092 463.67 92.5479 459.794 96.9916C458.52 98.453 458.807 99.2529 460.16 100.379C465.191 104.566 466.85 110.515 464.747 116.341C462.87 121.541 457.874 124.839 451.549 124.873C441.432 124.928 431.315 124.849 421.203 124.933C419.09 124.952 418.581 124.157 418.591 122.168C418.651 102.758 418.631 83.3494 418.631 63.9403L418.641 63.9552ZM425.524 54.0358C425.524 67.599 425.524 81.1671 425.524 94.7302C425.524 97.6137 425.928 98.0185 428.792 98.0284C432.984 98.0432 437.181 98.0729 441.373 98.0185C451.43 97.8902 458.639 90.721 458.669 80.7079C458.718 62.9479 458.718 45.1929 458.669 27.4329C458.639 17.1828 451.534 10.1124 441.274 10.0087C437.245 9.9692 433.216 9.99883 429.187 9.99883C425.726 9.99883 425.524 10.1865 425.524 13.5834C425.519 27.0676 425.524 40.5517 425.524 54.0309V54.0358ZM440.178 104.931C436.154 104.931 432.125 104.941 428.101 104.926C426.585 104.921 425.524 105.361 425.528 107.133C425.543 110.007 425.524 112.885 425.528 115.759C425.528 117.25 426.284 118.094 427.785 118.094C435.917 118.094 444.054 118.188 452.181 117.995C456.007 117.907 458.831 114.549 458.654 110.96C458.491 107.632 455.548 105.01 451.761 104.951C447.9 104.887 444.039 104.936 440.178 104.931Z" fill="#998330"/>
<path d="M490.268 63.9353C490.268 50.7721 490.268 37.6139 490.268 24.4506C490.268 12.7341 497.822 3.03698 509.657 0.568261C524.544 -2.53739 538.309 9.62846 538.3 23.7742C538.29 37.1843 538.304 50.5894 538.304 63.9995C538.304 77.2417 538.369 90.4889 538.285 103.731C538.196 117.566 526.78 128.334 513.01 127.712C500.592 127.154 490.53 116.726 490.278 104.161C490.273 103.914 490.273 103.667 490.273 103.42C490.273 90.2568 490.273 77.0985 490.273 63.9353H490.268ZM530.261 64.2464H530.281V60.5433C530.281 48.4466 530.35 36.3499 530.261 24.2532C530.177 13.4599 521.058 6.25125 510.566 8.53235C503.263 10.1222 498.341 16.3878 498.321 24.3865C498.272 43.7264 498.301 63.0614 498.301 82.4014C498.301 89.6446 498.232 96.8829 498.341 104.126C498.449 111.389 502.938 117.284 509.628 119.249C519.996 122.296 530.103 115.053 530.227 104.24C530.38 90.9086 530.261 77.5775 530.261 64.2464Z" fill="#FAFAFA"/>
<path d="M395.282 124.829C392.398 124.829 389.638 124.937 386.893 124.755C386.142 124.705 385.333 123.891 384.75 123.244C379.906 117.867 375.078 112.48 370.328 107.024C369.029 105.533 367.627 104.807 365.632 104.886C362.675 105.005 359.707 105.015 356.75 104.891C354.429 104.793 353.496 105.622 353.565 108.027C353.708 112.875 353.555 117.739 353.669 122.587C353.708 124.256 353.328 124.967 351.521 124.937C345.344 124.839 346.574 125.155 346.569 120.163C346.544 82.1496 346.574 44.1313 346.5 6.11795C346.5 3.69367 347.231 3.02218 349.581 3.06661C356.325 3.20486 363.075 3.08143 369.819 3.12586C382.983 3.21474 393.252 13.1785 393.356 26.3466C393.509 45.5977 393.45 64.8537 393.361 84.1097C393.317 93.2884 388.74 99.6429 380.153 102.981C377.472 104.022 377.433 104.531 379.408 106.674C384.646 112.357 389.806 118.109 394.99 123.846C395.129 123.999 395.124 124.286 395.277 124.819L395.282 124.829ZM353.61 54.016H353.6C353.6 67.5792 353.615 81.1473 353.585 94.7104C353.585 96.5471 353.792 98.0481 356.128 98.0333C361.307 98.0037 366.501 98.2357 371.661 97.9099C380.573 97.3421 386.463 91.6936 386.493 83.8332C386.562 64.7599 386.587 45.6866 386.478 26.6182C386.424 17.1778 379.304 10.2012 369.859 10.0235C365.667 9.94446 361.475 10.0037 357.283 9.99878C353.802 9.99878 353.62 10.1716 353.62 13.5735C353.62 27.0576 353.62 40.5368 353.62 54.021L353.61 54.016Z" fill="#998330"/>
<path d="M148.76 52.9051C148.76 43.1191 148.686 33.3282 148.785 23.5422C148.904 11.8503 156.858 2.77038 168.1 0.474468C179.985 -1.94981 191.736 5.83653 195.054 17.6024C195.187 18.0764 195.301 18.5603 195.419 19.0392C196.95 25.1468 196.836 25.2357 190.669 25.2505C188.778 25.2555 188.171 24.6136 187.924 22.7374C187.129 16.7236 184.152 12.0182 178.518 9.48529C168.273 4.87372 157.026 12.0972 156.873 23.3743C156.744 32.8344 156.843 42.2946 156.838 51.7498C156.838 61.6197 156.823 71.4896 156.838 81.3596C156.853 90.9629 163.138 97.3223 172.712 97.4359C175.674 97.4704 178.637 97.4112 181.594 97.4606C189.869 97.5889 196.155 103.647 196.14 111.429C196.125 119.096 189.608 125.278 181.471 125.298C172.258 125.323 163.044 125.263 153.831 125.337C151.827 125.352 151.041 124.76 151.096 122.661C151.239 117.003 150.503 117.521 156.295 117.526C164.437 117.536 172.584 117.62 180.725 117.462C182.414 117.428 184.31 116.82 185.707 115.877C187.722 114.519 188.754 112.352 187.781 109.834C186.793 107.276 184.957 105.538 182.103 105.4C179.229 105.262 176.346 105.36 173.467 105.351C158.734 105.306 148.8 95.4412 148.765 80.7918C148.746 71.4946 148.765 62.2023 148.765 52.9051H148.76Z" fill="#FAFAFA"/>
<path d="M281.261 63.8761C281.261 44.3782 281.291 24.8802 281.217 5.38229C281.207 3.17526 281.958 2.5482 284.081 2.56795C293.704 2.65189 303.332 2.66177 312.955 2.56795C315.122 2.5482 315.858 3.22463 315.784 5.40204C315.587 10.9122 316.673 10.4925 310.585 10.4728C304.413 10.453 298.241 10.532 292.074 10.4284C289.907 10.3938 289.27 11.1492 289.275 13.3019C289.339 40.448 289.334 67.5989 289.275 94.745C289.275 96.799 289.927 97.5495 291.961 97.4951C295.743 97.3914 299.53 97.5248 303.312 97.4161C305.287 97.3569 306.151 97.9593 306.097 100.077C305.939 106.086 306.758 105.346 300.843 105.356C297.718 105.36 294.593 105.38 291.467 105.331C289.902 105.306 289.235 105.943 289.285 107.538C289.359 110.002 289.408 112.48 289.275 114.939C289.171 116.88 289.887 117.586 291.818 117.576C301.935 117.516 312.056 117.605 322.173 117.477C324.494 117.447 325.427 117.926 325.308 120.454C325.066 125.604 326.133 125.323 320.371 125.313C308.279 125.293 296.182 125.273 284.091 125.357C282.002 125.372 281.202 124.878 281.212 122.617C281.296 103.035 281.261 83.458 281.257 63.8761H281.261Z" fill="#FAFAFA"/>
<path d="M525.981 144.608C526.356 138.343 528.909 133.677 533.293 130.151C542.096 123.066 551.952 119.926 563.209 123.041C565.431 123.659 565.485 122.513 565.485 120.874C565.456 95.8757 565.46 70.8775 565.456 45.8792C565.456 44.235 565.52 42.5859 565.421 40.9467C565.312 39.2087 566.083 38.5866 567.742 38.6162C574.708 38.7545 573.568 37.8213 573.578 44.2647C573.607 72.7191 573.612 101.169 573.528 129.623C573.528 130.818 572.837 132.339 571.953 133.148C565.638 138.96 557.788 139.562 549.784 139.113C543.731 138.772 537.771 138.826 532.113 141.271C530.118 142.13 528.282 143.344 525.986 144.613L525.981 144.608Z" fill="#FAFAFA"/>
<path d="M633.716 67.8557C633.716 86.1193 633.686 104.378 633.755 122.642C633.76 124.671 633.192 125.402 631.099 125.357C625.682 125.244 625.682 125.323 625.682 119.798C625.682 84.3418 625.667 48.8861 625.732 13.4353C625.732 11.1887 625.124 10.3296 622.814 10.4135C618.79 10.5666 614.751 10.4037 610.722 10.5024C608.865 10.5468 608.016 10.0334 608.08 7.99913C608.278 2.00508 607.271 2.61239 613.497 2.61239C625.095 2.61239 636.693 2.67164 648.291 2.55314C650.75 2.52845 651.382 3.37275 651.308 5.70816C651.145 10.7048 652.024 10.5123 646.518 10.4629C643.146 10.4333 639.769 10.532 636.402 10.4284C634.446 10.3691 633.641 10.9073 633.651 13.0649C633.73 31.3285 633.696 49.5872 633.696 67.8508H633.716V67.8557Z" fill="#FAFAFA"/>
<path d="M241.431 67.8261C241.431 86.0848 241.397 104.343 241.481 122.602C241.49 124.829 240.779 125.421 238.641 125.357C232.598 125.174 233.423 125.984 233.423 120.059C233.413 84.5295 233.398 48.9947 233.472 13.4649C233.477 11.016 232.672 10.3198 230.337 10.4136C226.313 10.5765 222.279 10.4235 218.25 10.5074C216.453 10.542 215.756 9.89517 215.806 8.04857C215.964 1.96564 215.09 2.61245 221.178 2.61245C232.855 2.61245 244.537 2.65195 256.214 2.55814C258.396 2.53839 259.097 3.25431 259.038 5.40704C258.885 10.9123 259.7 10.4778 254.036 10.4531C250.748 10.4383 247.45 10.5518 244.166 10.4136C241.974 10.3198 241.372 11.1443 241.382 13.2872C241.456 31.4619 241.426 49.6415 241.426 67.8163H241.436L241.431 67.8261Z" fill="#FAFAFA"/>
<path d="M114.025 64.1329C114.025 44.6498 114.055 25.1617 113.981 5.67856C113.971 3.35797 114.574 2.45935 117.032 2.56304C122.232 2.78029 122.054 1.7138 122.049 7.63379C122.034 45.9434 122.024 84.2579 122.083 122.567C122.083 124.74 121.451 125.446 119.269 125.372C114.035 125.189 114.03 125.283 114.03 120.123C114.03 101.46 114.03 82.7964 114.03 64.1378L114.025 64.1329Z" fill="#FAFAFA"/>
<path d="M651.229 148.38C672.03 148.38 692.832 148.38 713.633 148.38C717.598 148.38 717.672 148.538 717.761 151.684C717.805 153.308 717.203 153.945 715.707 153.999C714.966 154.024 714.23 154.093 713.495 154.093C671.561 154.103 629.627 154.093 587.694 154.152C585.363 154.152 584.963 153.16 584.983 151.17C585.003 149.279 585.388 148.321 587.59 148.331C608.801 148.395 630.017 148.371 651.229 148.371V148.385V148.38Z" fill="#FAFAFA"/>
<path d="M574.422 136.076C573.889 139.893 572.457 143.403 570.186 146.529C563.377 155.91 548.49 160.991 537.342 157.781C533.367 156.636 530.015 154.607 527.704 150.992C526.741 149.486 526.879 148.608 528.267 147.502C534.276 142.712 541.237 141.937 548.535 142.515C554.494 142.989 560.385 142.767 565.939 140.342C568.018 139.434 569.87 138.012 571.82 136.812C572.481 136.407 573.128 135.982 573.78 135.568C573.992 135.736 574.205 135.908 574.417 136.076H574.422Z" fill="#FAFAFA"/>
<path d="M580.737 15.4151C582.815 22.6781 587.911 27.8476 592.646 33.2738C595.08 36.0585 597.47 38.8729 599.845 41.7119C610.653 54.6381 611.858 68.9715 605.962 84.2924C604.456 88.2028 602.822 92.0639 601.143 95.9003C600.659 97.0063 599.815 97.9592 599.134 98.9763C598.877 98.8381 598.625 98.7047 598.368 98.5665C598.625 97.7716 598.852 96.9668 599.139 96.1817C601.049 90.9332 603.35 85.7933 604.817 80.4214C608.07 68.5222 605.227 57.6944 597.425 48.3873C593.456 43.6523 587.758 41.1095 581.907 39.2037C580.579 38.7692 579.779 38.2162 579.784 36.6658C579.799 30.1731 579.73 23.6754 579.72 17.1827C579.72 16.6495 579.927 16.1211 580.036 15.5879C580.268 15.5287 580.5 15.4694 580.737 15.4102V15.4151Z" fill="#FAFAFA"/>
<path d="M359.875 196.318C359.875 190.645 359.944 184.977 359.836 179.308C359.801 177.329 360.537 176.652 362.428 176.761C364.23 176.864 366.047 176.736 367.849 176.81C372.056 176.988 375.191 180.015 375.265 184.182C375.359 189.499 375.31 194.817 375.295 200.14C375.295 201.542 375.097 202.939 374.702 204.287C374.031 206.593 373.685 208.854 375.122 211.461C376.169 213.352 373.72 215.944 371.222 216.097C368.027 216.29 364.813 216.226 361.608 216.206C359.821 216.196 359.851 214.888 359.856 213.579C359.875 207.827 359.865 202.075 359.865 196.323L359.875 196.318ZM362.443 193.311H362.458C362.458 196.599 362.458 199.888 362.458 203.176C362.458 206.03 363.917 207.406 366.837 207.304C367.168 207.294 367.499 207.304 367.82 207.259C370.654 206.914 372.762 208 372.762 202.011C372.856 196.175 372.866 190.339 372.762 184.503C372.703 181.254 370.481 179.259 367.193 179.146C366.373 179.116 365.544 179.18 364.729 179.121C363.006 178.992 362.398 179.797 362.428 181.471C362.492 185.416 362.448 189.361 362.448 193.306L362.443 193.311ZM367.444 209.654C366.299 209.654 365.094 209.447 364.028 209.733C363.386 209.906 362.517 210.864 362.537 211.446C362.561 212.202 363.317 213.52 363.85 213.564C366.2 213.767 368.6 213.727 370.945 213.485C371.587 213.421 372.673 212.256 372.589 211.757C372.466 211.007 371.602 210.049 370.851 209.807C369.814 209.471 368.59 209.654 367.444 209.654Z" fill="#FAFAFA"/>
<path d="M454.654 215.969C454.506 216.221 454.205 216.344 453.924 216.255C453.03 215.984 452.067 215.796 451.42 215.238C449.939 213.955 448.794 212.291 447.337 210.972C446.611 210.316 445.555 209.866 444.577 209.674C442.538 209.279 441.55 210.113 441.644 212.365C441.699 213.668 442.543 216.004 440.474 216.008C438.139 216.013 439.181 213.589 439.166 212.241C439.087 201.384 439.185 190.526 439.067 179.669C439.042 177.309 439.862 176.573 442.069 176.746C443.703 176.874 445.357 176.731 447.001 176.795C451.253 176.958 454.511 180.103 454.585 184.345C454.689 190.512 454.615 196.683 454.615 202.85C454.615 205.186 453.593 207.106 451.633 208.207C449.5 209.407 449.924 210.291 451.406 211.654C452.576 212.73 453.548 214.014 454.585 215.233C454.758 215.441 454.788 215.732 454.654 215.964V215.969ZM441.699 193.168H441.713C441.713 196.209 441.713 199.251 441.713 202.292C441.713 207.472 443.061 208.484 448.181 207.116C448.497 207.032 448.799 206.894 449.105 206.775C450.986 206.04 452.018 204.717 452.018 202.648C452.013 196.565 452.067 190.482 451.983 184.399C451.939 181.313 449.732 179.264 446.616 179.136C445.797 179.101 444.967 179.165 444.152 179.106C442.36 178.983 441.644 179.758 441.679 181.57C441.758 185.431 441.704 189.297 441.704 193.158L441.699 193.168Z" fill="#FAFAFA"/>
<path d="M240.434 198.431C240.434 193.578 240.404 188.724 240.444 183.871C240.478 179.432 243.697 176.065 247.914 175.966C252.274 175.867 255.779 179.17 255.819 183.693C255.908 193.81 255.893 203.931 255.829 214.053C255.829 214.112 255.824 214.172 255.814 214.231C255.611 215.411 253.908 215.539 253.444 214.438C253.385 214.295 253.345 214.152 253.34 214.009C253.093 209.674 253.158 209.669 248.877 209.669C248.467 209.669 248.052 209.669 247.642 209.669C243.164 209.659 243.214 209.669 242.922 214.028C242.922 214.103 242.907 214.177 242.888 214.246C242.621 215.386 240.932 215.46 240.537 214.359C240.493 214.236 240.463 214.107 240.463 213.984C240.35 208.805 240.404 203.62 240.404 198.436C240.414 198.436 240.429 198.436 240.439 198.436L240.434 198.431ZM253.316 194.308H253.291C253.291 190.857 253.33 187.411 253.281 183.959C253.237 180.898 250.955 178.444 248.205 178.375C245.43 178.306 243.011 180.676 242.977 183.792C242.893 190.936 242.947 198.081 242.907 205.225C242.898 206.691 243.574 207.343 244.981 207.338C246.951 207.338 248.926 207.274 250.891 207.348C252.664 207.412 253.409 206.761 253.35 204.899C253.241 201.374 253.32 197.839 253.32 194.308H253.316Z" fill="#FAFAFA"/>
<path d="M477.796 196.436C477.796 200.707 477.688 204.983 477.826 209.244C477.944 212.858 473.772 217.327 469.852 216.981C465.961 216.635 462.49 213.668 462.436 209.55C462.312 200.767 462.302 191.973 462.446 183.189C462.51 179.091 466.04 175.951 470.044 175.946C474.108 175.946 477.525 179.224 477.786 183.377C477.796 183.54 477.801 183.703 477.801 183.871C477.801 188.058 477.801 192.249 477.801 196.436H477.796ZM464.88 196.348C464.88 200.372 464.86 204.396 464.885 208.415C464.909 211.871 467.121 214.463 469.995 214.478C472.967 214.493 475.229 212.014 475.244 208.568C475.278 200.441 475.278 192.314 475.244 184.182C475.229 180.834 473.071 178.449 470.148 178.375C467.21 178.301 464.924 180.814 464.89 184.276C464.845 188.3 464.88 192.324 464.88 196.343V196.348Z" fill="#FAFAFA"/>
<path d="M565.939 17.474C565.939 13.529 565.999 9.58401 565.91 5.64394C565.875 3.9504 566.468 3.32334 568.176 3.27891C573.094 3.14559 573.099 3.09128 573.099 8.10772C573.104 15.1732 573.039 22.2387 573.148 29.3041C573.178 31.1507 572.61 31.758 570.783 31.7383C564.902 31.6741 566.008 31.9309 565.954 27.0872C565.92 23.8828 565.949 20.6784 565.949 17.474H565.939Z" fill="#998330"/>
<path d="M395.933 192.724C395.933 189.598 395.869 186.473 395.953 183.352C396.057 179.516 398.95 176.4 402.624 175.995C406.208 175.605 409.739 177.906 410.711 181.446C410.761 181.629 410.766 181.822 410.741 182.024C410.632 182.982 409.462 183.446 408.731 182.819C408.578 182.691 408.455 182.547 408.376 182.38C406.85 179.289 405.058 177.995 402.599 178.484C399.888 179.027 398.461 181.116 398.456 184.596C398.447 190.186 398.442 195.775 398.456 201.364C398.466 205.25 400.466 207.225 404.406 207.294C405.147 207.309 405.887 207.254 406.623 207.304C409.136 207.486 410.963 209.17 411.111 211.392C411.254 213.619 409.423 215.89 406.939 216.083C404.08 216.305 401.187 216.25 398.318 216.132C398.116 216.122 397.918 216.018 397.721 215.86C397.025 215.312 397.128 214.162 397.938 213.801C398.052 213.752 398.165 213.722 398.279 213.713C400.659 213.594 403.068 213.861 405.418 213.579C406.49 213.451 408.218 212.478 408.307 211.728C408.514 209.995 406.895 209.738 405.384 209.595C403.537 209.422 401.557 209.363 399.918 208.632C397.252 207.442 395.909 205.097 395.929 202.08C395.948 198.955 395.929 195.834 395.933 192.709V192.724Z" fill="#FAFAFA"/>
<path d="M217.198 196.367C217.198 192.008 217.109 187.643 217.228 183.288C217.332 179.457 220.289 176.415 224.027 175.996C227.641 175.596 231.359 178.099 232.218 181.679C232.233 181.743 232.243 181.807 232.248 181.876C232.346 183.165 230.49 183.698 229.927 182.533C229.927 182.528 229.922 182.518 229.917 182.513C228.48 179.422 226.426 177.956 223.933 178.499C220.64 179.215 219.909 182.197 219.934 187.05C219.963 193.973 219.988 198.416 219.988 205.423C219.988 210.459 220.689 213.742 224.041 214.399C226.466 214.873 228.515 213.337 229.947 210.232C229.996 210.123 230.065 210.024 230.154 209.931C230.905 209.111 232.356 209.679 232.312 210.79C232.312 210.859 232.302 210.923 232.287 210.987C231.497 214.764 227.725 217.263 223.577 216.882C220.398 216.591 217.351 213.293 217.248 209.698C217.114 205.26 217.218 200.816 217.218 196.372H217.203L217.198 196.367Z" fill="#FAFAFA"/>
<path d="M285.755 196.461C285.755 190.788 285.833 185.115 285.71 179.447C285.666 177.363 286.411 176.652 288.421 176.756C290.633 176.869 292.859 176.702 295.076 176.825C295.136 176.825 295.19 176.84 295.249 176.85C296.242 177.101 296.321 178.519 295.412 178.988C295.294 179.047 295.17 179.091 295.047 179.106C293.59 179.279 292.094 179.195 290.618 179.106C288.282 178.968 288.529 180.37 288.529 183.649C288.529 191.005 288.475 196.436 288.475 203.374C288.475 206.43 288.554 207.575 290.702 207.328C291.107 207.279 291.6 207.156 291.916 207.319L291.941 207.328C292.855 207.807 292.904 209.096 292.03 209.644L291.976 209.679C291.916 209.718 291.813 209.689 291.734 209.689C290.144 209.674 288.149 209.106 288.302 211.807C288.455 214.512 290.578 213.569 292.05 213.643C294.099 213.742 296.168 213.569 298.207 213.732C298.375 213.747 298.538 213.816 298.7 213.925C299.505 214.463 299.436 215.742 298.533 216.107C298.439 216.147 298.345 216.166 298.251 216.171C294.721 216.275 291.186 216.221 287.65 216.216C285.932 216.216 285.735 215.125 285.745 213.722C285.784 207.97 285.759 202.213 285.759 196.461H285.755Z" fill="#FAFAFA"/>
<path d="M263.625 196.199C263.625 190.61 263.694 185.021 263.585 179.432C263.546 177.531 264.094 176.711 266.064 176.761C269.347 176.845 272.641 176.706 275.924 176.835C276.057 176.84 276.186 176.874 276.314 176.924C277.307 177.329 277.242 178.849 276.201 179.086C276.136 179.101 276.072 179.111 276.008 179.116C273.549 179.234 271.076 179.195 268.612 179.116C266.859 179.062 266.089 179.689 266.104 181.55C266.168 189.356 266.168 197.167 266.099 204.973C266.084 206.884 266.943 207.427 268.651 207.348C270.211 207.279 271.782 207.23 273.332 207.363C273.436 207.373 273.534 207.403 273.628 207.452C274.354 207.812 274.433 208.854 273.801 209.368C273.633 209.506 273.455 209.605 273.273 209.624C271.727 209.782 270.152 209.728 268.597 209.629C266.81 209.521 265.965 210.212 266.113 212.044C266.183 212.863 266.306 213.722 266.118 214.498C266.118 214.503 266.118 214.507 266.118 214.517C265.852 215.564 264.366 215.752 263.817 214.823C263.743 214.7 263.689 214.572 263.664 214.438C263.457 213.332 263.64 212.147 263.64 210.997C263.64 206.064 263.64 201.132 263.64 196.204H263.625V196.199Z" fill="#FAFAFA"/>
<path d="M489.572 197.439C489.572 192.338 489.463 187.238 489.616 182.143C489.69 179.694 488.802 178.795 486.451 179.146C486.052 179.205 485.553 179.279 485.242 179.101C485.064 178.997 484.901 178.869 484.748 178.726C484.235 178.252 484.23 177.403 484.797 176.988C484.891 176.919 484.99 176.874 485.084 176.874C488.861 176.79 492.648 176.776 496.425 176.86C496.534 176.86 496.637 176.914 496.741 176.993C497.388 177.487 497.319 178.523 496.628 178.953C496.42 179.081 496.203 179.155 495.966 179.111C493.927 178.755 492.13 180.563 492.13 182.631C492.13 192.97 492.169 203.304 492.085 213.643C492.085 213.727 492.075 213.806 492.06 213.89C491.833 215.204 489.839 215.238 489.611 213.92C489.602 213.851 489.592 213.782 489.592 213.713C489.473 208.286 489.532 202.86 489.532 197.429H489.572V197.439Z" fill="#FAFAFA"/>
<path d="M423.114 197.735C423.114 192.477 423.045 187.218 423.149 181.96C423.193 179.861 422.581 178.81 420.344 179.131C419.865 179.2 419.302 179.264 418.883 179.076C418.764 179.022 418.651 178.958 418.542 178.884C417.88 178.435 417.826 177.437 418.483 176.988C418.591 176.914 418.705 176.864 418.818 176.864C422.596 176.776 426.373 176.78 430.15 176.879C430.298 176.879 430.446 176.993 430.594 177.146C431.048 177.63 430.999 178.405 430.491 178.834C430.377 178.933 430.258 179.027 430.14 179.126C430.086 179.17 429.977 179.136 429.898 179.15C428.54 179.447 426.669 179.323 425.963 180.168C425.262 181.012 425.686 182.829 425.682 184.216C425.672 193.992 425.711 203.773 425.632 213.55C425.632 213.742 425.593 213.935 425.533 214.127C425.207 215.149 423.805 215.248 423.356 214.275C423.237 214.024 423.163 213.767 423.158 213.51C423.03 208.257 423.094 202.993 423.094 197.735H423.109H423.114Z" fill="#FAFAFA"/>
<path d="M384.691 196.57C384.691 190.813 384.642 185.056 384.75 179.299C384.75 179.21 384.76 179.121 384.78 179.037C385.032 177.743 386.982 177.724 387.194 179.022C387.204 179.091 387.209 179.156 387.214 179.225C387.298 190.739 387.298 202.253 387.214 213.767C387.214 213.915 387.184 214.063 387.135 214.211C386.74 215.377 384.977 215.263 384.765 214.053C384.755 213.984 384.745 213.915 384.745 213.841C384.646 208.084 384.691 202.327 384.696 196.57H384.691Z" fill="#FAFAFA"/>
<path d="M334.206 197.784C334.25 200.095 332.423 202.021 330.103 202.11C327.673 202.203 325.629 200.288 325.605 197.903C325.585 195.493 327.545 193.558 329.984 193.573C332.324 193.588 334.161 195.424 334.206 197.784Z" fill="#FAFAFA"/>
<path d="M292.242 173.26C291.586 174.06 290.218 173.68 290.169 172.648C290.169 172.554 290.169 172.47 290.198 172.391C290.86 170.367 291.595 168.342 292.543 166.442C292.637 166.254 292.805 166.101 293.017 165.972C293.847 165.454 294.933 166.076 294.839 167.049C294.83 167.153 294.81 167.251 294.78 167.345C294.247 169.068 293.561 170.747 292.82 172.391C292.687 172.682 292.499 172.949 292.242 173.26Z" fill="#FAFAFA"/>
</svg>
